<?xml version="1.0" encoding="utf-8"?>
<svg viewBox="126.855 107.132 124.188 37.83" xmlns="http://www.w3.org/2000/svg" width="2500" height="1000">
  <path d="M 366.424 76.546 C 364.219 74.95 361.566 74.093 358.844 74.096 C 351.694 74.096 345.874 79.916 345.874 87.066 C 345.874 94.216 351.694 100.036 358.844 100.036 C 361.674 100.036 364.284 99.126 366.424 97.586 L 366.424 99.576 L 371.814 99.576 L 371.814 74.466 L 366.424 74.466 Z M 358.844 94.636 C 354.664 94.636 351.264 91.236 351.264 87.056 C 351.264 82.876 354.664 79.476 358.844 79.476 C 363.024 79.476 366.424 82.876 366.424 87.056 C 366.424 91.236 363.024 94.636 358.844 94.636 Z M 380.104 76.546 L 380.104 74.516 L 374.714 74.516 L 374.714 99.556 L 380.104 99.556 L 380.104 87.056 C 380.104 82.876 383.504 79.476 387.684 79.476 C 388.894 79.476 389.924 79.786 390.624 79.996 L 391.414 74.626 C 390.204 74.266 388.954 74.076 387.684 74.076 C 384.854 74.096 382.234 75.006 380.104 76.546 Z M 411.984 76.546 C 409.779 74.95 407.126 74.093 404.404 74.096 C 397.254 74.096 391.434 79.916 391.434 87.066 C 391.434 94.216 397.254 100.036 404.404 100.036 C 407.234 100.036 409.844 99.126 411.984 97.586 L 411.984 99.576 L 417.374 99.576 L 417.374 74.466 L 411.984 74.466 Z M 404.414 94.636 C 400.234 94.636 396.834 91.236 396.834 87.056 C 396.834 82.876 400.234 79.476 404.414 79.476 C 408.594 79.476 411.994 82.876 411.994 87.056 C 411.994 91.236 408.584 94.636 404.414 94.636 Z M 441.224 74.466 L 422.014 74.466 L 422.014 79.796 L 431.614 79.796 L 420.284 99.556 L 440.584 99.556 L 440.584 94.226 L 429.954 94.226 Z" fill="#2e2e54" transform="matrix(1, 0, 0, 1, -190.181015, 44.925713)"/>
  <path d="M 342.974 96.946 L 336.264 94.296 L 342.974 91.646 Z" fill="#5fb146" transform="matrix(1, 0, 0, 1, -190.181015, 44.925713)"/>
  <path d="M 317.894 82.406 L 317.894 82.436 L 324.154 79.956 L 320.324 78.436 C 319.294 79.596 318.464 80.936 317.894 82.406 Z" fill="#f89d3b" transform="matrix(1, 0, 0, 1, -190.181015, 44.925713)"/>
  <path d="M 342.974 62.206 L 337.584 62.206 L 337.584 65.086 L 342.974 62.956 Z" fill="#54c7e8" transform="matrix(1, 0, 0, 1, -190.181015, 44.925713)"/>
  <path d="M 342.974 62.956 L 342.974 68.256 L 337.584 66.126 L 337.584 65.086 Z" fill="#2dbae6" transform="matrix(1, 0, 0, 1, -190.181015, 44.925713)"/>
  <path d="M 342.974 68.256 L 342.974 72.526 L 337.584 74.646 L 337.584 66.126 Z" fill="#24a4d7" transform="matrix(1, 0, 0, 1, -190.181015, 44.925713)"/>
  <path d="M 342.974 72.526 L 337.584 74.646 L 337.584 75.696 L 342.974 77.816 Z" fill="#f0574b" transform="matrix(1, 0, 0, 1, -190.181015, 44.925713)"/>
  <path d="M 337.584 76.556 L 337.584 75.686 L 342.974 77.816 L 342.974 82.076 L 337.104 84.396 C 337.104 84.396 336.344 81.836 333.494 80.326 C 330.644 78.816 327.594 79.556 325.944 80.656 L 324.144 79.946 L 335.644 75.396 C 335.654 75.396 336.224 75.626 337.584 76.556 Z" fill="#e33126" transform="matrix(1, 0, 0, 1, -190.181015, 44.925713)"/>
  <path d="M 337.104 84.396 C 337.194 84.646 337.274 84.896 337.344 85.156 L 342.974 87.386 L 342.974 82.086 Z" fill="#98c93c" transform="matrix(1, 0, 0, 1, -190.181015, 44.925713)"/>
  <path d="M 337.344 85.156 C 337.494 85.726 337.574 86.316 337.584 86.926 C 337.634 89.646 336.234 92.056 334.104 93.436 L 336.264 94.296 L 342.974 91.646 L 342.974 87.386 Z" fill="#76bf43" transform="matrix(1, 0, 0, 1, -190.181015, 44.925713)"/>
  <path d="M 322.394 87.186 C 322.348 84.539 323.686 82.06 325.924 80.646 L 324.154 79.946 L 317.894 82.426 C 317.894 82.426 317.884 82.426 317.884 82.436 C 317.374 83.766 317.074 85.206 317.044 86.696 L 322.624 88.896 C 322.484 88.356 322.404 87.786 322.394 87.186 Z" fill="#f48030" transform="matrix(1, 0, 0, 1, -190.181015, 44.925713)"/>
  <path d="M 322.624 88.906 L 317.044 86.706 C 317.034 86.896 317.034 87.096 317.044 87.286 C 317.074 88.936 317.414 90.506 318.004 91.946 L 322.984 89.976 C 322.834 89.636 322.714 89.276 322.624 88.906 Z" fill="#f16722" transform="matrix(1, 0, 0, 1, -190.181015, 44.925713)"/>
  <path d="M 330.124 94.636 C 327.014 94.693 324.184 92.846 322.984 89.976 L 318.004 91.946 C 319.264 95.026 321.664 97.506 324.684 98.866 L 336.274 94.286 L 334.114 93.426 C 332.925 94.199 331.542 94.618 330.124 94.636 Z" fill="#5b449a" transform="matrix(1, 0, 0, 1, -190.181015, 44.925713)"/>
  <path d="M 339.684 95.646 L 336.264 94.296 L 324.674 98.876 C 326.364 99.636 328.244 100.046 330.214 100.016 C 332.974 99.966 335.504 99.066 337.584 97.556 L 337.584 99.566 L 342.974 99.566 L 342.974 96.956 Z" fill="#453290" transform="matrix(1, 0, 0, 1, -190.181015, 44.925713)"/>
  <path d="M 335.644 75.406 C 330.435 72.873 324.177 74.111 320.324 78.436 L 324.154 79.946 Z" fill="#f0574b" transform="matrix(1, 0, 0, 1, -190.181015, 44.925713)"/>
</svg>